<?xml version="1.0" encoding="UTF-8"?>
<svg width="375px" height="255px" viewBox="0 0 375 255" version="1.1" xmlns="http://www.w3.org/2000/svg" xmlns:xlink="http://www.w3.org/1999/xlink">
    <!-- Generator: Sketch 53.2 (72643) - https://sketchapp.com -->
    <title>contact-mobile</title>
    <desc>Created with Sketch.</desc>
    <defs>
        <linearGradient x1="50%" y1="17.9755895%" x2="50%" y2="107.906015%" id="linearGradient-1">
            <stop stop-color="#374488" offset="0%"></stop>
            <stop stop-color="#283171" offset="100%"></stop>
        </linearGradient>
        <rect id="path-2" x="0" y="0" width="375" height="255"></rect>
        <linearGradient x1="33.3482837%" y1="28.0515962%" x2="109.204934%" y2="100%" id="linearGradient-4">
            <stop stop-color="#F2718D" offset="0%"></stop>
            <stop stop-color="#4F3B75" offset="100%"></stop>
        </linearGradient>
    </defs>
    <g id="Page-1" stroke="none" stroke-width="1" fill="none" fill-rule="evenodd">
        <g id="banner1-copy-3" transform="translate(0.000000, -53.000000)">
            <g id="contact-mobile" transform="translate(0.000000, 53.000000)">
                <g id="Group-30" transform="translate(-0.000000, 0.000000)">
                    <g id="Group-5">
                        <g id="Group">
                            <mask id="mask-3" fill="white">
                                <use xlink:href="#path-2"></use>
                            </mask>
                            <use id="Mask" fill="url(#linearGradient-1)" xlink:href="#path-2"></use>
                            <g mask="url(#mask-3)">
                                <g transform="translate(234.000000, 2.000000)">
                                    <g id="Group-22" stroke="none" fill="none" transform="translate(67.000000, 64.000000)">
                                        <g id="Group-29">
                                            <rect id="Rectangle-Copy-4" fill="#D9B138" x="0" y="0" width="32.3209877" height="32.6666667" rx="16.1604938"></rect>
                                            <rect id="Rectangle" fill="#EAC146" x="0.329805996" y="2.33333333" width="32.3209877" height="32.6666667" rx="16.1604938"></rect>
                                        </g>
                                    </g>
                                    <g id="Group-22-Copy-4" stroke="none" fill="none" transform="translate(110.000000, 78.000000)">
                                        <g id="Group-29">
                                            <rect id="Rectangle-Copy-4" fill="#4CA4B1" x="0" y="0" width="32.3209877" height="32.6666667" rx="16.1604938"></rect>
                                            <rect id="Rectangle" fill="#7FC8D3" x="0.329805996" y="2.33333333" width="32.3209877" height="32.6666667" rx="16.1604938"></rect>
                                        </g>
                                        <g id="Group-27" transform="translate(7.740741, 10.705882)" fill="#FFFFFF">
                                            <g id="Group-113" transform="translate(0.000000, 0.268430)">
                                                <path d="M15.962579,13.1375556 C15.4245957,12.6999978 14.8499651,12.3068873 14.2841299,11.905875 C13.1553911,11.1048381 12.12389,11.0426121 11.2814894,12.3310863 C10.8084941,13.0545875 10.146887,13.0861944 9.45449622,12.7691379 C7.54639025,11.8945163 6.07316632,10.547273 5.21024311,8.58715263 C4.82862191,7.71993887 4.83350823,6.94260717 5.72672659,6.32923616 C6.19972187,6.00477179 6.67613757,5.62104452 6.63802432,4.91235901 C6.58867254,3.98785779 4.36833105,0.899766877 3.49123753,0.573820931 C3.12867297,0.438997835 2.76708566,0.447393412 2.39816889,0.572833216 C0.342496218,1.27164157 -0.509188467,2.9803885 0.306337487,5.00372265 C2.73923367,11.0401428 7.02062277,15.2423762 12.9135185,17.807472 C13.249697,17.95316 13.6235001,18.011929 13.8121118,18.0642779 C15.1538939,18.0781059 16.7253328,16.771359 17.1797601,15.4744892 C17.6165966,14.2270052 16.6930831,13.73216 15.962579,13.1375556" id="Fill-3958"></path>
                                                <path d="M9.35432676,0.955078916 C13.6625906,1.62474968 15.6493662,3.69549415 16.198588,8.08144255 C16.2489171,8.48689955 16.0998845,9.0963197 16.6715833,9.10767842 C17.2696682,9.11903715 17.125522,8.51850643 17.1304083,8.11304943 C17.1807373,3.9819315 13.6171479,0.153054346 9.47843916,0.0118111029 C9.16620364,0.0572459923 8.52072144,-0.205980052 8.48016503,0.501223879 C8.4532903,0.978290218 8.99713714,0.899766877 9.35432676,0.955078916" id="Fill-3959"></path>
                                                <path d="M10.1967274,2.15762191 C9.78236795,2.10774231 9.23558931,1.91019931 9.13835164,2.49146958 C9.03769356,3.10138358 9.64701702,3.0396514 10.0393881,3.12805189 C12.7004752,3.72907646 13.6264319,4.70790201 14.0647343,7.37572019 C14.128745,7.7648799 14.0017009,8.37034919 14.6554898,8.26960226 C15.1402122,8.19502978 14.9652821,7.67647941 15.0058386,7.37325091 C15.0273383,4.81210594 12.85586,2.48060471 10.1967274,2.15762191" id="Fill-3960"></path>
                                                <path d="M10.4415318,4.2525654 C10.1644778,4.25947941 9.89328729,4.28960471 9.79165194,4.5883885 C9.63871029,5.03483567 9.96022981,5.14150889 10.2871243,5.19435164 C11.378727,5.37164648 11.952869,6.0220568 12.0623225,7.1223713 C12.0916404,7.42115508 12.2792749,7.6626514 12.5646356,7.62857523 C12.9599385,7.58116491 12.9960972,7.22558752 12.9838815,6.88729513 C13.0034267,5.65116983 11.6210882,4.22293395 10.4415318,4.2525654" id="Fill-3961"></path>
                                            </g>
                                        </g>
                                    </g>
                                    <g id="Group-22-Copy-3" stroke="none" fill="none" transform="translate(25.000000, 78.000000)">
                                        <g id="Group-29">
                                            <rect id="Rectangle-Copy-4" fill="#548D3A" x="0" y="0" width="32.3209877" height="32.6666667" rx="16.1604938"></rect>
                                            <rect id="Rectangle" fill="#66B54A" x="0.329805996" y="2.33333333" width="32.3209877" height="32.6666667" rx="16.1604938"></rect>
                                        </g>
                                    </g>
                                    <g id="Group-22-Copy" stroke="none" fill="none" transform="translate(0.000000, 37.000000)">
                                        <g id="Group-29">
                                            <rect id="Rectangle-Copy-4" fill="#D9B138" x="0" y="0" width="32.3209877" height="32.6666667" rx="16.1604938"></rect>
                                            <rect id="Rectangle" fill="#EAC146" x="0.329805996" y="2.33333333" width="32.3209877" height="32.6666667" rx="16.1604938"></rect>
                                        </g>
                                    </g>
                                    <g id="Group-22-Copy-2" stroke="none" fill="none" transform="translate(90.000000, 30.000000)">
                                        <g id="Group-29">
                                            <rect id="Rectangle-Copy-4" fill="#509431" x="0" y="0" width="32.3209877" height="32.6666667" rx="16.1604938"></rect>
                                            <rect id="Rectangle" fill="#66B54A" x="0.329805996" y="2.33333333" width="32.3209877" height="32.6666667" rx="16.1604938"></rect>
                                        </g>
                                    </g>
                                    <path d="M104.846521,51.9236703 C105.26056,51.9236703 105.647373,51.7400105 106.008501,51.3715284 C106.369116,51.0036275 106.614149,50.418357 106.744627,49.6157169 L107.011749,47.919188 C107.094968,47.3932001 106.747196,46.8875543 106.274596,46.8863919 L106.265863,46.8863919 C105.910899,46.8863919 105.585216,46.970085 105.289841,47.1374712 C104.994466,47.3048574 104.740186,47.5385007 104.527002,47.8395633 C104.314332,48.140626 104.148922,48.4951593 104.030772,48.9031631 C103.912108,49.3117482 103.853033,49.7563678 103.853033,50.2381843 C103.853033,50.7333685 103.930088,51.1378851 104.083683,51.4517343 C104.237278,51.7661646 104.492071,51.9236703 104.846521,51.9236703 M105.615115,57.534909 C104.661205,57.534909 103.766627,57.3825016 102.930358,57.0782491 C102.0946,56.7739966 101.367276,56.3083385 100.749408,55.68015 C100.131029,55.0519614 99.6451237,54.2595553 99.2922027,53.3012443 C98.9387702,52.3434958 98.7623097,51.2040956 98.7623097,49.8836062 C98.7623097,48.6019216 98.9362128,47.4630838 99.2835076,46.465968 C99.6302908,45.4688522 100.124892,44.6308926 100.766799,43.9509642 C101.408194,43.2715983 102.176948,42.753638 103.071526,42.3976457 C103.966616,42.0416535 104.961444,41.8633761 106.056522,41.8633761 C107.186892,41.8633761 108.167399,42.0287185 108.997531,42.3588409 C109.827151,42.6889632 110.518671,43.16137 111.072604,43.7760613 C111.625513,44.3913149 112.037766,45.1421042 112.308339,46.0289917 C112.579423,46.9158792 112.714965,47.9096207 112.714965,49.0096536 C112.714965,50.5629721 112.420353,51.7771701 111.832151,52.6505602 C111.242927,53.5250752 110.371365,53.9614891 109.217978,53.9614891 C108.911602,53.9614891 108.643587,53.9131236 108.414444,53.8163927 C108.184789,53.7190994 107.990427,53.5925619 107.831357,53.4373425 C107.672798,53.2821231 107.551577,53.1105945 107.469229,52.9227565 C107.386881,52.735481 107.334198,52.5442687 107.310159,52.3496821 L107.239575,52.3496821 C106.933198,52.8547074 106.533221,53.2337577 106.03862,53.4857079 C105.544531,53.7382206 105.032028,53.8647581 104.502135,53.8647581 C103.701158,53.8647581 103.089428,53.5509451 102.665412,52.9227565 C102.241395,52.2951304 102.029642,51.4566083 102.029642,50.4083151 C102.029642,49.6833957 102.129381,49.0130279 102.329881,48.3977743 C102.529869,47.7836455 102.815787,47.2521879 103.186609,46.805651 C103.557432,46.3591141 104.010603,46.0126824 104.546122,45.7669184 C105.082153,45.5211544 105.679562,45.3974288 106.33937,45.3974288 C106.762876,45.3974288 107.224742,45.462666 107.72548,45.5920154 C108.027765,45.6701875 108.335164,45.7697304 108.64819,45.8900816 C109.008272,46.0289917 109.221559,46.4412229 109.149952,46.8534541 L108.582209,50.1361188 C108.558169,50.3048356 108.534641,50.4758018 108.511625,50.6507048 C108.487585,50.8256078 108.476333,50.9903878 108.476333,51.1461696 C108.476333,51.4436734 108.538222,51.6866254 108.661488,51.8744634 C108.785266,52.0623013 109.006226,52.1556579 109.323855,52.1556579 C109.770888,52.1556579 110.121252,51.8772753 110.374434,51.3210725 C110.628128,50.7643074 110.754463,49.9938344 110.754463,49.0096536 C110.754463,47.4045953 110.371365,46.1487806 109.606703,45.2427719 C108.840506,44.3362007 107.657454,43.8834776 106.056522,43.8834776 C105.255545,43.8834776 104.525663,44.015639 103.866366,44.2810866 C103.206557,44.5465342 102.644952,44.9351451 102.180017,45.4463567 C101.714571,45.9581307 101.355512,46.5857569 101.102329,47.3297976 C100.849147,48.0744006 100.722812,48.9258576 100.722812,49.8836062 C100.722812,50.867787 100.849147,51.7158696 101.102329,52.4272918 C101.355512,53.1398387 101.702807,53.72866 102.144725,54.1948805 C102.585621,54.661101 103.104261,55.0035959 103.698601,55.2240524 C104.29294,55.4439466 104.931778,55.5541748 105.615115,55.5541748 C106.085676,55.5541748 106.624265,55.4861257 107.23088,55.3500276 C107.622162,55.2622949 108.026742,55.1571282 108.444621,55.0345273 C108.839995,54.9186752 109.250713,55.1610649 109.378583,55.5884805 L109.46042,55.8612392 C109.599031,56.3229606 109.358124,56.8212373 108.931038,56.9483372 C108.446155,57.0928712 107.977128,57.2143472 107.522423,57.3116405 C106.827322,57.4601113 106.191553,57.534909 105.615115,57.534909" id="Fill-191" stroke="#66B54A" fill="#FFFFFF" transform="translate(105.738637, 49.699143) rotate(-2.000000) translate(-105.738637, -49.699143) "></path>
                                    <g id="Group-25" stroke="none" fill="none" transform="translate(15.000000, 0.000000)">
                                        <ellipse id="Oval" fill="#FFFFFF" cx="1.5" cy="37.9736842" rx="1.5" ry="1.02631579"></ellipse>
                                        <path d="M1.65005711,38.0421053 L1.65005711,0.242020214" id="Path-4" stroke="#8585A1" stroke-width="3" stroke-linecap="square"></path>
                                    </g>
                                    <g id="Group-25-Copy-3" stroke="none" fill="none" transform="translate(104.000000, 0.000000)">
                                        <ellipse id="Oval" fill="#FFFFFF" cx="1.5" cy="30.961039" rx="1.5" ry="1.03896104"></ellipse>
                                        <path d="M1.65005711,31.030303 L1.65005711,0.132191278" id="Path-4" stroke="#8585A1" stroke-width="3" stroke-linecap="square"></path>
                                    </g>
                                    <g id="Group-25-Copy" stroke="none" fill="none" transform="translate(39.000000, 0.000000)">
                                        <ellipse id="Oval" fill="#FFFFFF" cx="1.5" cy="78.9637306" rx="1.5" ry="1.03626943"></ellipse>
                                        <path d="M1.65005711,79.0328152 L1.65005711,0.121453978" id="Path-4" stroke="#8585A1" stroke-width="3" stroke-linecap="square"></path>
                                    </g>
                                    <g id="Group-25-Copy-4" stroke="none" fill="none" transform="translate(82.000000, 0.000000)">
                                        <ellipse id="Oval" fill="#FFFFFF" cx="1.5" cy="64.96875" rx="1.5" ry="1.03125"></ellipse>
                                        <path d="M1.65005711,65.0375 L1.65005711,0.128110542" id="Path-4" stroke="#8585A1" stroke-width="3" stroke-linecap="square"></path>
                                    </g>
                                    <g id="Group-25-Copy-2" stroke="none" fill="none" transform="translate(124.000000, 0.000000)">
                                        <ellipse id="Oval" fill="#FFFFFF" cx="1.5" cy="78.9637306" rx="1.5" ry="1.03626943"></ellipse>
                                        <path d="M1.65005711,79.0328152 L1.65005711,0.121453978" id="Path-4" stroke="#8585A1" stroke-width="3" stroke-linecap="square"></path>
                                    </g>
                                    <g id="Group-26" stroke="none" fill="none" transform="translate(44.000000, 0.000000)">
                                        <g id="Group-22-Copy-6" transform="translate(0.000000, 32.969697)">
                                            <g id="Group-29">
                                                <rect id="Rectangle-Copy-4" fill="#4CA4B1" x="0" y="0" width="32.3209877" height="32.6949495" rx="16.1604938"></rect>
                                                <rect id="Rectangle" fill="#7FC8D3" x="0.329805996" y="2.33535354" width="32.3209877" height="32.6949495" rx="16.1604938"></rect>
                                            </g>
                                        </g>
                                        <g id="Group-25" transform="translate(13.851852, 0.000000)">
                                            <ellipse id="Oval" fill="#FFFFFF" cx="1.62962963" cy="34" rx="1.62962963" ry="1.03030303"></ellipse>
                                            <path d="M1.79265464,34.0686869 L1.79265464,0.238126788" id="Path-4" stroke="#8585A1" stroke-width="3" stroke-linecap="square"></path>
                                        </g>
                                    </g>
                                    <g id="user-(33)" stroke="none" fill="none" transform="translate(8.000000, 48.000000)">
                                        <path d="M14.5104141,2.48958588 C12.9049912,0.884162895 10.7703934,0 8.5,0 C6.22947695,0 4.09500884,0.884162895 2.48958588,2.48958588 C0.884162895,4.09500884 0,6.22947695 0,8.5 C0,10.7703934 0.884162895,12.9049912 2.48958588,14.5104141 C4.09500884,16.1158371 6.22947695,17 8.5,17 C10.7703934,17 12.9049912,16.1158371 14.5104141,14.5104141 C16.1158371,12.9049912 17,10.7703934 17,8.5 C17,6.22947695 16.1158371,4.09500884 14.5104141,2.48958588 Z M4.26128388,14.6886215 C4.61679077,12.6417007 6.39056396,11.1318665 8.5,11.1318665 C10.6095657,11.1318665 12.3832092,12.6417007 12.7387161,14.6886215 C11.5318604,15.5177917 10.0717011,16.0039063 8.5,16.0039063 C6.92829893,16.0039063 5.46813965,15.5177917 4.26128388,14.6886215 Z M5.79731749,7.43309023 C5.79731749,5.94271088 7.00975038,4.73040771 8.5,4.73040771 C9.99024962,4.73040771 11.2026825,5.94284058 11.2026825,7.43309023 C11.2026825,8.92333984 9.99024962,10.1357727 8.5,10.1357727 C7.00975038,10.1357727 5.79731749,8.92333984 5.79731749,7.43309023 Z M13.6014786,13.9977112 C13.3333893,13.0448074 12.800972,12.1802292 12.0546799,11.5048828 C11.5968399,11.0904922 11.0757065,10.7635193 10.5154038,10.5330429 C11.5280991,9.87248232 12.198906,8.72969819 12.198906,7.43309023 C12.198906,5.39356231 10.5395279,3.73431396 8.5,3.73431396 C6.46047212,3.73431396 4.80122374,5.39356231 4.80122374,7.43309023 C4.80122374,8.72969819 5.47203066,9.87248232 6.48459624,10.5330429 C5.92442323,10.7635193 5.4031601,11.0903625 4.94532012,11.5047531 C4.19915771,12.1800995 3.66661073,13.0446777 3.39852143,13.9975815 C1.92189024,12.6262665 0.99609375,10.6693573 0.99609375,8.5 C0.99609375,4.36231993 4.36231993,0.99609375 8.5,0.99609375 C12.6376801,0.99609375 16.0039063,4.36231993 16.0039063,8.5 C16.0039063,10.669487 15.0781098,12.6263962 13.6014786,13.9977112 Z" id="Shape" stroke="#FFFFFF" fill="#FFFFFF" fill-rule="nonzero"></path>
                                    </g>
                                    <g id="whatsapp-(2)" stroke="none" fill="none" transform="translate(33.000000, 88.000000)">
                                        <path d="M8.03053222,0.00981861575 C3.55011933,0.223150358 0.0144439141,3.95446778 0.0280357995,8.43995227 C0.0321742243,9.80611933 0.361990453,11.0956038 0.943804296,12.234969 L0.0505131265,16.571105 C0.00219093079,16.8056563 0.21373747,17.0110358 0.446747017,16.9558568 L4.69565155,15.9492053 C5.78726253,16.4929618 7.01337232,16.8070358 8.31101193,16.8268353 C12.8904224,16.8967828 16.7088496,13.2606086 16.8515847,8.68290215 C17.0045847,3.77590692 12.9546897,-0.224692124 8.03053222,0.00981861575 Z M13.1003866,13.072432 C11.8560597,14.3167589 10.2016229,15.0020334 8.44189976,15.0020334 C7.41151313,15.0020334 6.42502625,14.7708496 5.50974463,14.3149332 L4.91803103,14.0201718 L2.31301432,14.6373652 L2.86135561,11.975506 L2.5698401,11.4046468 C2.09469212,10.4741098 1.85377088,9.46786396 1.85377088,8.41390453 C1.85377088,6.65414081 2.53904535,4.99974463 3.78337232,3.75537709 C5.01658234,2.52216706 6.698,1.82573508 8.44202148,1.82573508 C10.2017446,1.82577566 11.8561002,2.51105012 13.1004272,3.75533652 C14.3447542,4.99966348 15.0300286,6.65405967 15.0300692,8.41378282 C15.0300286,10.1578449 14.3335967,11.8392625 13.1003866,13.072432 Z" id="Shape" stroke="#66B54A" fill="#FFFFFF" fill-rule="nonzero"></path>
                                        <path d="M12.5253079,10.2385847 L10.8955394,9.77061814 C10.6812745,9.70910979 10.450537,9.76988783 10.2944129,9.92897375 L9.89586635,10.3350263 C9.72781384,10.5062434 9.47281384,10.5612601 9.25039379,10.4712697 C8.47942959,10.1592649 6.85765394,8.71730788 6.44348687,7.99604535 C6.324,7.78798807 6.34375895,7.52787589 6.49047017,7.3380358 L6.83842243,6.88788067 C6.97474702,6.71151074 7.00351313,6.47464678 6.91336038,6.2707685 L6.22768019,4.71995465 C6.06344153,4.34851074 5.58878043,4.24038425 5.27868258,4.50264678 C4.823821,4.887358 4.28412172,5.47197136 4.21851551,6.11963484 C4.10284248,7.26151551 4.59255609,8.70095704 6.44442005,10.429358 C8.58382339,12.426148 10.2970501,12.6899523 11.4125179,12.4197375 C12.04521,12.266494 12.5508282,11.6521408 12.8699332,11.1491193 C13.0874845,10.8061575 12.9156993,10.3506874 12.5253079,10.2385847 Z" id="Path" fill="#FFFFFF" fill-rule="nonzero"></path>
                                    </g>
                                    <g id="headset" stroke="none" fill="none" transform="translate(74.000000, 73.000000)">
                                        <path d="M9.42515262,0 C5.51864426,0 2.34077848,3.1155918 2.34077848,6.94546484 L2.34077848,7.69885937 L3.78167391,7.69885937 L3.78167391,6.94546484 C3.78167391,3.89462891 6.31333781,1.41264258 9.42515262,1.41264258 C12.5369674,1.41264258 15.0686313,3.89466602 15.0686313,6.94546484 L15.0686313,7.69885937 L16.5095268,7.69885937 L16.5095268,6.94546484 C16.5095268,3.1155918 13.3314339,0 9.42515262,0 Z" id="Path" fill="#FFFFFF" fill-rule="nonzero"></path>
                                        <path d="M4.06983785,6.99255664 L2.29274484,6.99255664 C1.04807191,6.99255664 0.0353533594,7.98541797 0.0353533594,9.20568555 L0.0353533594,12.4311953 C0.0353533594,13.6514629 1.04807191,14.6443242 2.29274484,14.6443242 L4.06983785,14.6443242 C4.46777133,14.6443242 4.79026664,14.3281152 4.79026664,13.9380215 L4.79026664,7.69889648 C4.79030449,7.30876562 4.46777133,6.99255664 4.06983785,6.99255664 Z M3.34940906,13.2317187 L2.29274484,13.2317187 C1.8350059,13.2317187 1.47624879,12.8802187 1.47624879,12.4312324 L1.47624879,9.20572266 C1.47624879,8.75695898 1.83504375,8.40523633 2.29274484,8.40523633 L3.34940906,8.40523633 L3.34940906,13.2317187 Z" id="Shape" fill="#FFFFFF" fill-rule="nonzero"></path>
                                        <path d="M16.5573333,6.99255664 L14.7804674,6.99255664 C14.3825339,6.99255664 14.0600386,7.30876562 14.0600386,7.69885937 L14.0600386,13.9380215 C14.0600386,14.3281523 14.3825718,14.6443242 14.7804674,14.6443242 L16.5575604,14.6443242 C17.8022333,14.6443242 18.8149519,13.6514629 18.8147248,12.4311953 L18.8147248,9.20568555 C18.8147248,7.98541797 17.8022712,6.99255664 16.5573333,6.99255664 Z M17.3738293,12.4312324 C17.3738293,12.8802187 17.0152993,13.2317187 16.5573333,13.2317187 L15.500934,13.2317187 L15.500934,8.40519922 L16.5573333,8.40519922 C17.0152993,8.40519922 17.3738293,8.75695898 17.3738293,9.20568555 L17.3738293,12.4312324 Z" id="Shape" fill="#FFFFFF" fill-rule="nonzero"></path>
                                        <path d="M15.5731927,13.9380586 C15.5731927,14.9247969 14.7542741,15.7273984 13.7478389,15.7273984 L11.826645,15.7273984 L11.826645,17.140041 L13.7478389,17.140041 C15.5487027,17.140041 17.013861,15.7036113 17.0140881,13.9380586 L15.5731927,13.9380586 L15.5731927,13.9380586 Z" id="Path" fill="#FFFFFF" fill-rule="nonzero"></path>
                                        <path d="M12.5228488,16.417707 C12.5139537,15.0102598 11.3430156,13.8676621 9.90522398,13.8676621 C8.46217102,13.8676621 7.28786414,15.0187207 7.28786414,16.4337383 C7.28786414,17.8487559 8.47295871,19 9.92948684,19 C10.6487422,19 11.3415772,18.7125137 11.8300138,18.2110547 C12.3040668,17.7248477 12.5494963,17.0886816 12.5228488,16.417707 Z M10.7887173,17.2346699 C10.5704273,17.4585879 10.2572814,17.5871348 9.92971395,17.5871348 C9.27889418,17.5871348 8.72898668,17.0588086 8.72898668,16.4334785 C8.72898668,15.7975723 9.25659961,15.2800449 9.90548895,15.2800449 C10.5543783,15.2800449 11.0822183,15.7977949 11.0824454,16.4332187 C11.0824454,16.4440547 11.0826725,16.4546309 11.0831646,16.4654668 C11.096337,16.7529531 10.9919045,17.0263008 10.7887173,17.2346699 Z" id="Shape" fill="#FFFFFF" fill-rule="nonzero"></path>
                                    </g>
                                    <g id="message-(1)" stroke="none" fill="none" transform="translate(51.000000, 45.000000)">
                                        <path d="M14.1702128,0.0177304965 L3.655706,0.0177304965 C1.63989964,0.0177304965 0,1.68799865 0,3.74113475 L0,9.49191046 C0,11.1301806 1.0560475,12.55707 2.58633038,13.0137688 L4.35189496,14.8121676 C4.44995164,14.9119016 4.58268859,14.968002 4.72127358,14.968002 C4.85972255,14.968002 4.99259552,14.9119016 5.09051622,14.8121676 L6.71015173,13.1624003 L14.1702128,13.1624003 C16.1860191,13.1624003 17.8259188,11.4921321 17.8259188,9.43899603 L17.8259188,3.74113475 C17.8259188,1.68799865 16.1860191,0.0177304965 14.1702128,0.0177304965 Z M16.7814313,9.43899603 C16.7814313,10.905502 15.610055,12.0985705 14.1702128,12.0985705 L6.49391017,12.0985705 C6.3554612,12.0985705 6.22258823,12.1546709 6.12466754,12.2544049 L4.72127358,13.6837877 L3.22662294,12.1614583 C3.15957447,12.0931682 3.07552589,12.0446864 2.98345321,12.0214151 C1.84186111,11.7320479 1.04448743,10.6919049 1.04448743,9.49191046 L1.04448743,3.74113475 C1.04448743,2.27462876 2.21586375,1.08156028 3.655706,1.08156028 L14.1702128,1.08156028 C15.610055,1.08156028 16.7814313,2.27462876 16.7814313,3.74113475 L16.7814313,9.43899603 Z" id="Shape" fill="#FFFFFF" fill-rule="nonzero"></path>
                                        <path d="M12.228935,5.11801862 L5.59698378,5.11801862 C5.30852574,5.11801862 5.07474007,5.35627216 5.07474007,5.64993351 C5.07474007,5.94373337 5.30852574,6.1818484 5.59698378,6.1818484 L12.228935,6.1818484 C12.517393,6.1818484 12.7511787,5.94373337 12.7511787,5.64993351 C12.7511787,5.35627216 12.517393,5.11801862 12.228935,5.11801862 Z" id="Path" fill="#FFFFFF" fill-rule="nonzero"></path>
                                        <path d="M12.228935,7.83161567 L5.59698378,7.83161567 C5.30852574,7.83161567 5.07474007,8.06973071 5.07474007,8.36353057 C5.07474007,8.65733046 5.30852574,8.89544546 5.59698378,8.89544546 L12.228935,8.89544546 C12.517393,8.89544546 12.7511787,8.65733046 12.7511787,8.36353057 C12.7511787,8.06973071 12.517393,7.83161567 12.228935,7.83161567 Z" id="Path" fill="#FFFFFF" fill-rule="nonzero"></path>
                                    </g>
                                </g>
                            </g>
                        </g>
                    </g>
                </g>
                <polygon id="Path-Copy-13" fill="url(#linearGradient-4)" opacity="0.116234189" transform="translate(68.500000, 187.500000) scale(-1, 1) translate(-68.500000, -187.500000) " points="72.0786517 217 88 186.010101 64.7752809 158 55.1348315 176.772727 49 188.989899"></polygon>
            </g>
        </g>
    </g>
</svg>